<svg version="1.1" id="Layer_1" xmlns="http://www.w3.org/2000/svg" xmlns:xlink="http://www.w3.org/1999/xlink" x="0px" y="0px"
	 width="100%" viewBox="0 0 736 544" enable-background="new 0 0 736 544" xml:space="preserve">
	<path fill="rgb(47, 0, 255)" opacity="1.000000" stroke="none" 
	d="M482.578979,329.546021 
	C464.221283,347.963837 445.798187,365.826874 428.121277,384.400024 
	C417.652130,395.400024 405.856293,400.493774 390.508850,400.287292 
	C348.196503,399.718140 305.871216,400.107025 263.551025,400.128204 
	C251.682907,400.134155 245.938354,394.633331 245.925735,382.801392 
	C245.878326,338.315247 245.891312,293.828949 245.945480,249.342789 
	C245.957779,239.244492 249.359009,230.349747 256.536987,223.168701 
	C276.200836,203.496460 295.999695,183.959152 315.666565,164.289917 
	C322.665771,157.289856 331.113800,154.083221 340.848541,153.954590 
	C347.345367,153.868729 353.844696,153.891785 360.341797,153.963821 
	C361.921051,153.981323 363.691010,153.428787 365.010986,154.807297 
	C365.515656,156.331253 364.364471,156.993530 363.583496,157.772400 
	C335.285400,185.993484 306.988800,214.216110 278.643036,242.389221 
	C276.229950,244.787582 275.236053,247.399597 275.251465,250.827209 
	C275.361511,275.319122 275.407593,299.812561 275.215942,324.303467 
	C275.184540,328.318420 276.518890,330.157898 280.200104,331.587708 
	C296.610077,337.961670 308.079224,349.474243 314.221771,366.001495 
	C315.533691,369.531433 317.274506,370.812866 321.061615,370.789551 
	C345.886322,370.636780 370.712646,370.673553 395.537872,370.777863 
	C398.643768,370.790894 400.890167,369.739441 403.019836,367.604706 
	C428.777649,341.785492 454.580872,316.011505 480.380798,290.234314 
	C483.718170,286.899872 487.103485,283.613434 491.166992,280.690399 
	C491.441315,297.601166 495.724457,314.906952 482.578979,329.546021 
	z"/>
	<path fill="rgb(47, 0, 255)" opacity="1.000000" stroke="none" 
	d="M491.773132,166.687073 
	C493.001007,172.341644 490.991913,176.092255 487.198334,179.860184 
	C448.329071,218.466309 409.597229,257.211273 370.959076,296.048798 
	C367.617645,299.407471 365.750946,299.940643 362.526062,295.892639 
	C358.815521,291.235077 354.442688,287.008179 349.882446,283.156677 
	C346.531555,280.326538 346.181335,278.639008 349.468079,275.388824 
	C372.436157,252.676270 395.220184,229.777588 418.054169,206.929550 
	C433.942902,191.031067 449.936523,175.234421 465.620331,159.136093 
	C469.916077,154.726776 474.411499,152.855103 480.316315,154.384033 
	C486.557281,156.000046 490.409210,159.910370 491.773132,166.687073 
	z"/>
	<path fill="rgb(47, 0, 255)" opacity="1.000000" stroke="none" 
	d="M320.336548,230.331772 
	C335.454865,215.311874 350.317841,200.533127 365.183075,185.756607 
	C374.862061,176.135422 384.545471,166.518692 394.223907,156.897003 
	C395.786377,155.343735 397.424408,154.024170 399.820679,154.028091 
	C411.307068,154.046875 422.793549,154.012131 434.279907,154.042755 
	C435.050995,154.044815 435.821045,154.429550 436.507904,154.613846 
	C437.014008,156.744995 435.505707,157.514526 434.515472,158.504547 
	C400.019440,192.992081 365.480621,227.436935 331.056946,261.996460 
	C328.265839,264.798553 326.199585,265.443390 322.541992,263.324707 
	C315.397888,259.186340 307.869324,255.711746 299.946075,251.680573 
	C306.128082,243.713425 313.844879,237.824783 320.336548,230.331772 
	z"/>
	<path fill="rgb(47, 0, 255)" opacity="1.000000" stroke="none" 
	d="M402.509705,296.505951 
	C431.905212,267.086914 461.046814,237.912445 490.136719,208.789734 
	C492.585663,210.621994 492.030548,212.596237 492.041260,214.327637 
	C492.103180,224.325302 491.993408,234.324646 492.129364,244.320877 
	C492.173584,247.571121 491.082275,249.943970 488.780182,252.236343 
	C458.555542,282.333252 428.411560,312.511169 398.231293,342.652679 
	C397.092896,343.789581 396.206940,345.348877 393.786774,345.521515 
	C390.020538,337.043884 385.687164,328.657654 381.162323,320.368561 
	C379.917816,318.088776 382.007782,316.727020 383.400177,315.349030 
	C389.675110,309.139130 395.968842,302.948242 402.509705,296.505951 
	z"/>
</svg>
