<?xml version="1.0" standalone="no"?>
<!DOCTYPE svg PUBLIC "-//W3C//DTD SVG 20010904//EN"
 "http://www.w3.org/TR/2001/REC-SVG-20010904/DTD/svg10.dtd">
<svg version="1.0" xmlns="http://www.w3.org/2000/svg"
 width="500.000000pt" height="499.000000pt" viewBox="0 0 500.000000 499.000000"
 preserveAspectRatio="xMidYMid meet" style="background: none;">

<g transform="translate(0.000000,499.000000) scale(0.100000,-0.100000)"
fill="rgb(242, 242, 242)" stroke="none">
<path d="M1860 4849 c-116 -13 -255 -70 -335 -137 -61 -50 -1182 -1165 -1248
-1240 -70 -81 -123 -170 -153 -262 -18 -52 -19 -127 -22 -1503 -2 -1398 -2
-1450 16 -1491 27 -59 72 -107 129 -136 l48 -25 1375 -3 c933 -2 1405 0 1469
8 111 12 210 49 301 109 93 63 1304 1274 1359 1359 83 132 101 230 101 572 l0
254 -887 -889 -888 -890 -841 -3 c-671 -2 -843 0 -851 10 -6 7 -25 51 -42 98
-105 277 -252 448 -516 602 -53 31 -88 46 -227 100 l-28 10 0 842 0 841 885
885 c487 487 888 888 892 893 9 10 -443 7 -537 -4z"/>
<path d="M2120 3912 c-522 -521 -950 -950 -950 -954 0 -4 17 -12 37 -19 59
-19 228 -100 348 -168 60 -34 112 -60 117 -59 6 3 1811 1802 2068 2062 l85 86
-378 0 -377 0 -950 -948z"/>
<path d="M4550 4853 c-17 -3 -400 -377 -1250 -1224 l-1224 -1220 70 -62 c81
-73 144 -135 237 -235 37 -40 72 -72 77 -70 5 2 558 552 1230 1222 l1221 1219
-7 76 c-15 174 -87 263 -233 291 -54 10 -74 11 -121 3z"/>
<path d="M3828 2699 c-588 -587 -1068 -1072 -1068 -1078 0 -6 8 -25 19 -43 10
-18 35 -62 56 -98 36 -63 82 -157 140 -288 15 -34 31 -62 34 -62 9 0 1883
1875 1890 1891 3 8 4 179 1 380 l-5 366 -1067 -1068z"/>
</g>
</svg>
